<?xml version="1.0" encoding="utf-8"?>
<!-- Designed by Vexels.com - 2020 All Rights Reserved - https://vexels.com/terms-and-conditions/  -->
<svg version="1.1" id="Capa_1" xmlns="http://www.w3.org/2000/svg" xmlns:xlink="http://www.w3.org/1999/xlink" x="0px" y="0px"
	 viewBox="0 0 1200 1200" enable-background="new 0 0 1200 1200" xml:space="preserve">
<g>
	<g>
		<path fill="#FCE270" d="M1013.9,501.084c8.675,9.301,24.007,6.541,29.029-5.143c25.274-58.802,15.264-129.519-31.191-179.326
			c-46.455-49.807-116.305-64.713-176.722-43.59c-12.006,4.197-15.825,19.301-7.15,28.601L1013.9,501.084z"/>
	</g>
	<g>
		<path fill="#FCE270" d="M247.368,501.084c-8.675,9.301-24.007,6.541-29.029-5.143c-25.274-58.802-15.264-129.519,31.191-179.326
			s116.305-64.713,176.722-43.59c12.006,4.197,15.825,19.301,7.15,28.601L247.368,501.084z"/>
	</g>
	<g>
		<circle fill="#7EC4BD" cx="644.81" cy="706.97" r="333.494"/>
	</g>
	<g>
		<g>
			<path fill="#FCE270" d="M1006.616,316.614c-10.554-11.316-22.359-20.735-34.943-28.434
				c30.257,47.053,34.384,105.633,12.89,155.641c-3.479,8.093-11.889,11.776-19.623,10.262l43.837,47
				c8.674,9.301,24.007,6.542,29.03-5.143C1063.081,437.139,1053.072,366.422,1006.616,316.614z"/>
		</g>
	</g>
	<g>
		<g>
			<path fill="#FCE270" d="M248.159,316.614c10.554-11.316,22.359-20.735,34.943-28.434
				c-30.257,47.053-34.384,105.633-12.89,155.641c3.479,8.093,11.889,11.776,19.623,10.262l-43.837,47
				c-8.675,9.301-24.007,6.542-29.03-5.143C191.694,437.139,201.703,366.422,248.159,316.614z"/>
		</g>
	</g>
	<g opacity="0.3">
		<g>
			<path fill="#7EC4BD" d="M644.81,373.476c-19.294,0-38.174,1.73-56.571,4.875c157.224,26.88,276.922,163.728,276.922,328.618
				s-119.698,301.738-276.922,328.619c18.397,3.145,37.277,4.875,56.571,4.875c184.184,0,333.493-149.31,333.493-333.493
				S828.994,373.476,644.81,373.476z"/>
		</g>
	</g>
	<g>
		<path fill="#161F2B" d="M982.099,523.352c-9.397,0-18.428-3.867-24.969-10.877l-0.007-0.007L771.092,313.011
			c-7.91-8.484-10.975-20.267-8.197-31.529c2.791-11.314,11.034-20.365,22.047-24.219c68.575-23.965,144.903-5.139,194.437,47.968
			c49.54,53.113,63.012,130.557,34.32,197.299c-4.604,10.714-14.203,18.304-25.68,20.306
			C986.044,523.182,984.061,523.352,982.099,523.352z M981.538,489.697c0.143,0.15,0.287,0.32,0.75,0.248
			c0.522-0.091,0.652-0.411,0.737-0.6c23.463-54.581,12.449-117.913-28.06-161.342c-40.515-43.43-102.927-58.819-159.001-39.217
			c-0.196,0.065-0.528,0.183-0.652,0.698c-0.111,0.43,0.052,0.6,0.196,0.756L981.538,489.697z"/>
	</g>
	<g>
		
			<rect x="795.609" y="409.958" transform="matrix(0.7539 -0.657 0.657 0.7539 -74.053 655.6204)" fill="#161F2B" width="84.901" height="33.389"/>
	</g>
	<g>
		<path fill="#161F2B" d="M190.039,523.352c-1.963,0-3.932-0.17-5.908-0.515c-11.477-1.995-21.082-9.586-25.699-20.3
			c-28.686-66.755-15.207-144.199,34.327-197.306c49.533-53.113,125.862-71.94,194.437-47.968
			c11.014,3.854,19.257,12.912,22.047,24.225c2.778,11.255-0.287,23.045-8.197,31.522L215.008,512.468
			C208.467,519.485,199.436,523.352,190.039,523.352z M326.758,280.386c-40.841,0-80.756,16.707-109.585,47.616
			c-40.508,43.43-51.522,106.762-28.066,161.342c0.072,0.176,0.215,0.509,0.743,0.6c0.443,0.078,0.606-0.098,0.743-0.248
			l186.037-199.458c0.143-0.15,0.3-0.326,0.196-0.756c-0.13-0.515-0.47-0.639-0.652-0.704
			C360.002,283.132,343.302,280.386,326.758,280.386z"/>
	</g>
	<g>
		
			<rect x="317.384" y="384.202" transform="matrix(0.6569 -0.754 0.754 0.6569 -207.0657 398.3036)" fill="#161F2B" width="33.389" height="84.901"/>
	</g>
	<g>
		<rect x="571.556" y="263.705" fill="#161F2B" width="33.387" height="109.768"/>
	</g>
	<g>
		<rect x="524.038" y="251.583" fill="#161F2B" width="126.801" height="33.387"/>
	</g>
	<g>
		<path fill="#161F2B" d="M862.621,273.846c-4.936-13.942-10.577-27.271-16.759-39.602
			c-31.699-63.188-89.442-111.059-162.594-134.795c-82.973-26.932-177.312-19.798-252.33,19.093
			c-28.138,14.594-53.609,35.722-73.655,61.095c-21.969,27.806-37.365,58.402-44.525,88.49l-32.475-7.734
			c8.275-34.776,25.843-69.859,50.799-101.454c22.954-29.064,52.174-53.283,84.486-70.042
			c82.771-42.908,186.696-50.831,278.003-21.206c81.715,26.514,146.396,80.352,182.131,151.581
			c6.808,13.577,12.996,28.19,18.389,43.436L862.621,273.846z"/>
	</g>
	<g>
		
			<rect x="309.006" y="1056.522" transform="matrix(0.4535 -0.8913 0.8913 0.4535 -745.2144 931.1825)" fill="#161F2B" width="155.295" height="33.392"/>
	</g>
	<g>
		
			<rect x="771.527" y="995.571" transform="matrix(0.8913 -0.4533 0.4533 0.8913 -400.8786 473.9431)" fill="#161F2B" width="33.392" height="155.295"/>
	</g>
	<g>
		<path fill="#161F2B" d="M590.78,776.869c-1.963,0-3.952-0.346-5.869-1.069c-6.508-2.445-10.818-8.673-10.818-15.624V523.841
			c0-9.221,7.473-16.694,16.694-16.694s16.694,7.473,16.694,16.694V715.78l56.354-64.336c6.071-6.945,16.622-7.63,23.56-1.559
			c6.932,6.078,7.63,16.622,1.558,23.56l-85.608,97.73C600.112,774.867,595.501,776.869,590.78,776.869z"/>
	</g>
	<g>
		<path fill="#161F2B" d="M588.25,1057.154c-140.175,0-266.52-83.221-321.87-212.017l30.675-13.185
			c50.075,116.524,164.381,191.815,291.195,191.815c174.684,0,316.803-142.112,316.803-316.797S762.934,390.167,588.25,390.167
			c-161.845,0-297.214,121.121-314.879,281.746l-33.192-3.652C259.716,490.688,409.353,356.78,588.25,356.78
			c193.093,0,350.19,157.097,350.19,350.19S781.343,1057.154,588.25,1057.154z"/>
	</g>
	<g>
		<circle fill="#161F2B" cx="256.773" cy="760.176" r="27.043"/>
	</g>
</g>
</svg>
